# AST/ASF file generated using VICON BodyLanguage
# -----------------------------------------------
:version 1.10
:name VICON
:units
  mass 1.0
  length 0.45
  angle deg
:documentation
   .ast/.asf automatically generated from VICON data using
   VICON BodyBuilder and BodyLanguage model FoxedUp or BRILLIANT.MOD
:root
   order TX TY TZ RX RY RZ
   axis XYZ
   position 0 0 0  
   orientation 0 0 0 
:bonedata
  begin
     id 1 
     name lhipjoint
     direction 0.650112 -0.723553 0.232005 
     length 2.45805 
     axis 0 0 0  XYZ
  end
  begin
     id 2 
     name lfemur
     direction 0.34202 -0.939693 0  
     length 7.00073  
     axis 0 0 20  XYZ
    dof rx ry rz
    limits (-160.0 20.0)
           (-70.0 70.0)
           (-60.0 70.0)
  end
  begin
     id 3 
     name ltibia
     direction 0.34202 -0.939693 0   
     length 7.8748   
     axis 0 0 20   XYZ
    dof rx
    limits (-10.0 170.0)
  end
  begin
     id 4 
     name lfoot
     direction 0.0542825 -0.14914 0.987325   
     length 1.75978   
     axis -90 7.62852e-016 20   XYZ
    dof rx rz
    limits (-45.0 90.0)
           (-70.0 20.0)
  end
  begin
     id 5 
     name ltoes
     direction 1.53509e-011 -4.21906e-011 1   
     length 0.893912   
     axis -90 7.62852e-016 20   XYZ
    dof rx
    limits (-90.0 20.0)
  end
  begin
     id 6 
     name rhipjoint
     direction -0.637897 -0.733345 0.235145   
     length 2.42522  
     axis 0 0 0  XYZ 
  end
  begin
     id 7 
     name rfemur
     direction -0.34202 -0.939693 0   
     length 7.02549   
     axis 0 0 -20   XYZ
    dof rx ry rz
    limits (-160.0 20.0)
           (-70.0 70.0)
           (-70.0 60.0)
  end
  begin
     id 8 
     name rtibia
     direction -0.34202 -0.939693 0   
     length 7.71512   
     axis 0 0 -20   XYZ
    dof rx
    limits (-10.0 170.0)
 end
 begin
     id 9 
     name rfoot
     direction -0.0822618 -0.226012 0.970645   
     length 1.90014  
     axis -90 -7.62852e-016 -20   XYZ
    dof rx rz
    limits (-45.0 90.0)
           (-20.0 70.0)
  end
  begin
     id 10 
     name rtoes
     direction -1.53542e-011 -4.21872e-011 1   
     length 0.957341   
     axis -90 -7.62852e-016 -20   XYZ
    dof rx
    limits (-90.0 20.0)
  end
  begin
     id 11 
     name lowerback
     direction -0.0022947 0.999774 -0.0211557   
     length 1.89909   
     axis 0 0 0   XYZ
    dof rx ry rz
    limits (-20.0 45.0)
           (-30.0 30.0)
           (-30.0 30.0)
  end
  begin
     id 12 
     name upperback
     direction 0.0107737 0.998635 0.0511027   
     length 1.8853   
     axis 0 0 0   XYZ
    dof rx ry rz
    limits (-20.0 45.0)
           (-30.0 30.0)
           (-30.0 30.0)
  end
  begin
     id 13 
     name thorax
     direction 0.011824 0.998136 0.0598754   
     length 1.88911   
     axis 0 0 0   XYZ
    dof rx ry rz
    limits (-20.0 45.0)
           (-30.0 30.0)
           (-30.0 30.0)
  end
  begin
     id 14 
     name lowerneck
     direction -0.0685355 0.990319 0.120714   
     length 1.91222   
     axis 0 0 0   XYZ
    dof rx ry rz
    limits (-20.0 45.0)
           (-30.0 30.0)
           (-30.0 30.0)
  end
  begin
     id 15 
     name upperneck
     direction 0.0886204 0.955665 -0.280805   
     length 1.92526   
     axis 0 0 0   XYZ
    dof rx ry rz
    limits (-20.0 45.0)
           (-30.0 30.0)
           (-30.0 30.0)
  end
  begin
     id 16
     name head
     direction 0.0233423 0.993502 -0.111393  
     length 1.96056  
     axis 0 0 0   XYZ
    dof rx ry rz
    limits (-20.0 45.0)
           (-30.0 30.0)
           (-30.0 30.0)
  end
  begin
     id 17 
     name lclavicle
     direction 0.941873 0.32922 0.0670041  
     length 3.31705  
     axis 0 0 0   XYZ
    dof ry rz
    limits (-20.0 10.0)
           (0.0 20.0)
  end
  begin
     id 18 
     name lhumerus
     direction 1 -4.4898e-011 3.38707e-028   
     length 5.29277   
     axis 180 -30 -90   XYZ
    dof rx ry rz
    limits (-60.0 90.0)
           (-90.0 90.0)
           (-90.0 90.0)
  end
  begin
     id 19
     name lradius
     direction 1 -4.48952e-011 1.63213e-028   
     length 2.85226   
     axis 180 -30 -90   XYZ
    dof rx
    limits (-10.0 170.0)
  end
  begin
     id 20
     name lwrist
     direction 1 -4.49001e-011 1.27856e-027   
     length 1.42613   
     axis -1.61767e-015 90 90   XYZ
    dof ry
    limits (-180.0 0.0)
 end
  begin
     id 21 
     name lhand
     direction 1 -4.48976e-011 2.55931e-027   
     length 0.602097   
     axis -1.63363e-015 90 90   XYZ
    dof rx rz
    limits (-90.0 90.0)
           (-45.0 45.0)
  end
  begin
     id 22 
     name lfingers
     direction 1 -4.48986e-011 5.11684e-027   
     length 0.485426   
     axis -3.26723e-015 90 90   XYZ
    dof rx
    limits (0.0 90.0)
  end
  begin
     id 23
     name lthumb
     direction 0.707107 -6.34915e-011 0.707107   
     length 0.696978   
     axis -90 45 -2.25915e-014   XYZ
    dof rx rz
    limits (-45.0 45.0)
           (-45.0 45.0)
  end
  begin
     id 24 
     name rclavicle
     direction -0.939974 0.327078 0.0973096   
     length 3.10337  
     axis 0 0 0   XYZ 
    dof ry rz
    limits (-10.0 20.0)
           (-20.0 0.0)
  end
  begin
     id 25 
     name rhumerus
     direction -1 -4.48975e-011 1.83745e-027  
     length 5.13304   
     axis 180 30 90   XYZ
    dof rx ry rz
    limits (-90.0 60.0)
           (-90.0 90.0)
           (-90.0 90.0)
  end
  begin
     id 26 
     name rradius
     direction -1 -4.48977e-011 7.1775e-029   
     length 2.74305   
     axis 180 30 90   XYZ
    dof rx
    limits (-10.0 170.0)
  end
  begin
     id 27 
     name rwrist
     direction -1 -4.48977e-011 1.27963e-027   
     length 1.37152   
     axis -1.61767e-015 -90 -90   XYZ
    dof ry
    limits (-180.0 0.0)
  end
  begin
     id 28
     name rhand
     direction -1 -4.4888e-011 2.56782e-027   
     length 0.767976   
     axis -1.63363e-015 -90 -90   XYZ
    dof rx rz
    limits (-90.0 90.0)
           (-45.0 45.0)
  end
  begin
     id 29
     name rfingers
     direction -1 -4.48947e-011 5.12384e-027   
     length 0.619162   
     axis -3.26723e-015 -90 -90   XYZ
    dof rx
    limits (0.0 90.0)
  end
  begin
     id 30
     name rthumb
     direction -0.707107 -6.34857e-011 0.707107   
     length 0.888997   
     axis -90 -45 2.25915e-014   XYZ
    dof rx rz
    limits (-45.0 45.0)
           (-45.0 45.0)
  end
:hierarchy
  begin
    root lhipjoint rhipjoint lowerback
    lhipjoint lfemur
    lfemur ltibia
    ltibia lfoot
    lfoot ltoes
    rhipjoint rfemur
    rfemur rtibia
    rtibia rfoot
    rfoot rtoes
    lowerback upperback
    upperback thorax
    thorax lowerneck lclavicle rclavicle
    lowerneck upperneck
    upperneck head
    lclavicle lhumerus
    lhumerus lradius
    lradius lwrist
    lwrist lhand lthumb
    lhand lfingers
    rclavicle rhumerus
    rhumerus rradius
    rradius rwrist
    rwrist rhand rthumb
    rhand rfingers
  end

#!OML:ASF F:\VICON\USERDATA\INSTALL\rory3\rory3.ASF
:FULLY-SPECIFIED
:DEGREES
470
root 0.220027 17.3446 0.30795 4.15543 3.10019 -0.125884
lowerback -0.0390467 -0.296877 0.0444641
upperback -1.41892 -0.371298 1.97122
thorax -1.41868 -0.172773 2.00003
lowerneck -11.1029 -11.6513 -18.0978
upperneck 18.7622 -16.9185 18.3162
head 11.1234 -7.54332 7.09147
rclavicle -2.3233e-015 -9.54166e-015
rhumerus -32.0341 2.63506 -87.4746
rradius 24.3985
rwrist 28.7657
rhand -8.07443 13.3233
rfingers 7.12502
rthumb 17.8372 -15.8787
lclavicle -2.3233e-015 -9.54166e-015
lhumerus -23.9704 -37.6804 100.179
lradius 31.526
lwrist -3.2771
lhand -5.7326 26.3117
lfingers 7.12502
lthumb 20.0894 55.2931
rfemur -5.17679 10.429 18.2531
rtibia 16.0817
rfoot -13.4611 -14.5466
rtoes -12.4059
lfemur -9.93384 -14.6671 -17.3033
ltibia 21.2124
lfoot -14.9056 7.13022
ltoes -20.3207
471
root 0.216176 17.3457 0.32034 4.1084 3.3955 -0.256032
lowerback -0.195656 -0.344215 0.0475001
upperback -1.49641 -0.433901 2.05138
thorax -1.4076 -0.203233 2.08075
lowerneck -11.1382 -11.6623 -18.2046
upperneck 18.9885 -16.9238 18.2289
head 11.2152 -7.55519 7.08068
rclavicle -8.90804e-015 2.54444e-014
rhumerus -32.2734 2.77068 -87.3691
rradius 24.5252
rwrist 28.6078
rhand -8.13415 13.3146
rfingers 7.12502
rthumb 17.7798 -15.8926
lclavicle -8.90804e-015 2.54444e-014
lhumerus -23.4512 -37.6761 100.103
lradius 31.217
lwrist -3.76098
lhand -5.6222 26.0961
lfingers 7.12502
lthumb 20.1955 55.0663
rfemur -4.78612 10.4422 18.4743
rtibia 15.6391
rfoot -13.2691 -14.8666
rtoes -12.4158
lfemur -9.87266 -14.7844 -17.1397
ltibia 21.1674
lfoot -14.8465 6.94298
ltoes -20.1349
472
root 0.213219 17.3477 0.333347 4.05761 3.66723 -0.294484
lowerback -0.283838 -0.397502 -0.0675546
upperback -1.61177 -0.503949 2.10657
thorax -1.47259 -0.235468 2.20291
lowerneck -11.1129 -11.6614 -18.3472
upperneck 19.2111 -16.9207 18.168
head 11.299 -7.56772 7.09048
rclavicle 2.50966e-015 3.18055e-015
rhumerus -32.535 2.85326 -87.2298
rradius 24.6243
rwrist 28.5212
rhand -8.02746 13.5127
rfingers 7.12502
rthumb 17.8824 -15.6851
lclavicle 2.50966e-015 3.18055e-015
lhumerus -23.0615 -37.6004 100.081
lradius 30.9595
lwrist -4.20172
lhand -5.13047 26.0858
lfingers 7.12502
lthumb 20.6681 55.0053
rfemur -4.42177 10.5087 18.5787
rtibia 15.2335
rfoot -13.1894 -15.1002
rtoes -12.2158
lfemur -9.78363 -14.9351 -17.0842
ltibia 21.0925
lfoot -14.9115 6.71567
ltoes -18.8087
473
root 0.207987 17.3503 0.348659 3.95607 3.98395 -0.326954
lowerback -0.323398 -0.445091 -0.180442
upperback -1.73065 -0.56631 2.11434
thorax -1.56888 -0.263821 2.2755
lowerneck -10.9605 -11.6827 -18.3972
upperneck 19.3112 -16.9645 18.0877
head 11.3111 -7.60573 7.06862
rclavicle -5.00068e-015 5.56597e-015
rhumerus -32.8749 2.92907 -87.1793
rradius 24.7327
rwrist 28.3344
rhand -7.90962 13.5876
rfingers 7.12502
rthumb 17.9958 -15.5998
lclavicle -5.00068e-015 5.56597e-015
lhumerus -22.8293 -37.5106 100.06
lradius 30.8644
lwrist -4.7697
lhand -4.17108 26.1433
lfingers 7.12502
lthumb 21.5897 54.9598
rfemur -3.97993 10.1855 18.7427
rtibia 14.8452
rfoot -13.1456 -15.0068
rtoes -12.2293
lfemur -9.62904 -15.172 -17.0398
ltibia 21.001
lfoot -14.9361 6.61721
ltoes -18.2309
474
root 0.202234 17.3512 0.364023 3.8016 4.32355 -0.231757
lowerback -0.342583 -0.519499 -0.489951
upperback -1.8167 -0.66609 2.13147
thorax -1.6389 -0.308102 2.46872
lowerneck -10.7661 -11.6797 -18.4798
upperneck 19.3528 -16.963 18.0072
head 11.2865 -7.62882 7.06097
rclavicle -2.4421e-015 -2.22639e-014
rhumerus -33.2002 3.03654 -87.0956
rradius 24.8421
rwrist 28.2211
rhand -7.8168 13.4894
rfingers 7.12502
rthumb 18.0851 -15.6898
lclavicle -2.4421e-015 -2.22639e-014
lhumerus -22.6078 -37.3495 100.06
lradius 30.8828
lwrist -5.35409
lhand -3.13234 25.9974
lfingers 7.12502
lthumb 22.587 54.696
rfemur -3.43384 9.83087 18.7796
rtibia 14.4089
rfoot -13.0383 -14.9623
rtoes -12.4318
lfemur -9.42807 -15.2989 -17.1512
ltibia 20.9506
lfoot -14.859 6.38643
ltoes -18.1511
475
root 0.200449 17.3523 0.37747 3.76205 4.63106 -0.24312
lowerback -0.577246 -0.556375 -0.562525
upperback -1.86168 -0.716532 2.11343
thorax -1.55037 -0.332773 2.48908
lowerneck -10.6388 -11.6839 -18.5809
upperneck 19.3791 -16.9934 18.0721
head 11.2955 -7.65171 7.10366
rclavicle 9.61e-015 1.03368e-014
rhumerus -33.4323 3.11175 -87.0605
rradius 25.0415
rwrist 28.1047
rhand -7.77614 13.3343
rfingers 7.12502
rthumb 18.1242 -15.8413
lclavicle 9.61e-015 1.03368e-014
lhumerus -22.3448 -37.5264 100.023
lradius 31.0827
lwrist -5.68672
lhand -2.79719 26.2015
lfingers 7.12502
lthumb 22.9086 54.8607
rfemur -3.01301 9.51031 18.8656
rtibia 13.9031
rfoot -12.9365 -14.8632
rtoes -12.2157
lfemur -9.40132 -15.2917 -17.1296
ltibia 20.9638
lfoot -14.7855 6.12256
ltoes -18.2058
476
root 0.200014 17.3542 0.388503 3.75586 4.8802 -0.565832
lowerback -0.852448 -0.548639 -0.239586
upperback -1.87693 -0.706652 2.13997
thorax -1.4154 -0.332989 2.33165
lowerneck -10.6054 -11.7337 -18.6277
upperneck 19.3992 -17.073 18.0945
head 11.3213 -7.69091 7.10588
rclavicle 5.23673e-015 1.35174e-014
rhumerus -33.568 3.47467 -87.1716
rradius 25.3504
rwrist 27.7051
rhand -7.69089 13.1204
rfingers 7.12502
rthumb 18.2062 -16.0476
lclavicle 5.23673e-015 1.35174e-014
lhumerus -22.0581 -38.063 99.962
lradius 31.4383
lwrist -5.79169
lhand -3.16592 26.5444
lfingers 7.12502
lthumb 22.5547 55.247
rfemur -2.72 9.26836 19.2644
rtibia 13.4407
rfoot -12.8125 -14.8108
rtoes -11.9395
lfemur -9.45107 -15.3065 -16.7457
ltibia 20.9845
lfoot -14.8853 5.89867
ltoes -17.834
477
root 0.196497 17.3559 0.401629 3.71928 5.16095 -0.850716
lowerback -1.06977 -0.556875 0.034597
upperback -1.90935 -0.719391 2.13057
thorax -1.32955 -0.343428 2.16567
lowerneck -10.5944 -11.7977 -18.6249
upperneck 19.4621 -17.1758 18.0734
head 11.3624 -7.73886 7.07867
rclavicle 7.76503e-016 1.55052e-014
rhumerus -33.7174 3.85453 -87.343
rradius 25.71
rwrist 27.2391
rhand -7.34092 12.9889
rfingers 7.12502
rthumb 18.5429 -16.1473
lclavicle 7.76503e-016 1.55052e-014
lhumerus -21.8435 -38.5888 99.8593
lradius 31.8719
lwrist -6.06715
lhand -2.74034 26.5517
lfingers 7.12502
lthumb 22.9631 55.2041
rfemur -2.33751 8.98863 19.6488
rtibia 12.8963
rfoot -12.6068 -14.7604
rtoes -11.9575
lfemur -9.49345 -15.3859 -16.3972
ltibia 21.0613
lfoot -14.9903 5.72037
ltoes -17.9221
478
root 0.191972 17.3566 0.413352 3.66745 5.43494 -0.8395
lowerback -1.20876 -0.599056 -0.0638292
upperback -1.93418 -0.777086 2.08063
thorax -1.27429 -0.371491 2.16817
lowerneck -10.7209 -11.8184 -18.6219
upperneck 19.6351 -17.1946 17.9957
head 11.4466 -7.74425 7.04441
rclavicle -6.28657e-015 2.78299e-015
rhumerus -33.9679 4.45532 -87.562
rradius 26.3206
rwrist 26.6077
rhand -6.79059 12.7484
rfingers 7.12502
rthumb 19.0722 -16.3365
lclavicle -6.28657e-015 2.78299e-015
lhumerus -21.6136 -38.7619 99.7058
lradius 32.4502
lwrist -6.60937
lhand -1.71209 26.5888
lfingers 7.12502
lthumb 23.9495 55.1151
rfemur -1.88344 8.69746 19.7123
rtibia 12.3038
rfoot -12.3748 -14.6831
rtoes -11.8909
lfemur -9.48678 -15.5076 -16.3942
ltibia 21.1437
lfoot -14.9652 5.6509
ltoes -18.5874
479
root 0.188311 17.3578 0.424342 3.62763 5.73372 -0.960836
lowerback -1.32757 -0.634194 0.0171441
upperback -1.99734 -0.824541 2.05795
thorax -1.27208 -0.396133 2.09836
lowerneck -10.7518 -11.8407 -18.7499
upperneck 19.7576 -17.2353 18.0565
head 11.5281 -7.76385 7.08424
rclavicle -1.80149e-014 8.34896e-015
rhumerus -34.3715 5.115 -87.8273
rradius 27.1149
rwrist 25.8203
rhand -6.42615 12.6592
rfingers 7.12502
rthumb 19.4227 -16.3907
lclavicle -1.80149e-014 8.34896e-015
lhumerus -21.514 -38.8597 99.5693
lradius 33.3514
lwrist -7.19523
lhand -0.92675 26.4929
lfingers 7.12502
lthumb 24.7024 54.9182
rfemur -1.4672 8.39021 19.9214
rtibia 11.7499
rfoot -12.2888 -14.5804
rtoes -11.1655
lfemur -9.48864 -15.579 -16.2266
ltibia 21.1567
lfoot -14.9459 5.54394
ltoes -19.4453
480
root 0.183661 17.3586 0.435012 3.53986 6.04383 -1.08052
lowerback -1.38143 -0.661894 0.0587723
upperback -2.05519 -0.861448 2.02621
thorax -1.30096 -0.414949 2.04211
lowerneck -10.6406 -11.8711 -18.8188
upperneck 19.7637 -17.3101 18.1371
head 11.5417 -7.80257 7.11721
rclavicle 1.19395e-014 -2.26615e-014
rhumerus -34.9014 5.93055 -88.1732
rradius 28.2465
rwrist 24.5827
rhand -6.15863 12.7335
rfingers 7.12502
rthumb 19.6799 -16.2904
lclavicle 1.19395e-014 -2.26615e-014
lhumerus -21.5789 -39.0554 99.4381
lradius 34.611
lwrist -7.49104
lhand -0.512482 25.9887
lfingers 7.12502
lthumb 25.0994 54.3591
rfemur -1.04764 8.07129 20.1429
rtibia 11.2907
rfoot -12.1563 -14.5305
rtoes -11.0141
lfemur -9.41754 -15.64 -16.062
ltibia 21.1086
lfoot -14.8917 5.25449
ltoes -18.8849
